<?xml version="1.0" encoding="UTF-8"?>
<svg id="Layer_2" data-name="Layer 2" xmlns="http://www.w3.org/2000/svg" viewBox="0 0 792.15 792.15">
  <g id="Layer_1-2" data-name="Layer 1">
    <g>
      <circle cx="396.07" cy="396.07" r="387.07" style="fill: #2a74ba; stroke: #2a74ba; stroke-miterlimit: 10; stroke-width: 18px;"/>
      <circle cx="396.07" cy="396.07" r="281.2" style="fill: #fff; stroke: #2a74ba; stroke-miterlimit: 10; stroke-width: 18px;"/>
      <g>
        <ellipse cx="393.77" cy="267.98" rx="55.41" ry="32.47" style="fill: none; stroke: #fec704; stroke-miterlimit: 10; stroke-width: 18px;"/>
        <path d="M442.74,375.69c64.9,87.11,24.56,182.12-50.25,241.41h0c-68.85-61.88-105.49-156.79-48.73-239.87" style="fill: none; stroke: #fec704; stroke-miterlimit: 10; stroke-width: 18px;"/>
        <path d="M318.03,447.7c51.2,19.36,102.49,19.34,153.86-1.93" style="fill: none; stroke: #fec704; stroke-miterlimit: 10; stroke-width: 18px;"/>
        <path d="M322.93,504.38c48.83,15.5,101.55,16.51,146.48-4.17" style="fill: none; stroke: #fec704; stroke-miterlimit: 10; stroke-width: 18px;"/>
        <path d="M347.74,562.39c33.48,6.32,65.13,5.75,95-1.55" style="fill: none; stroke: #fec704; stroke-miterlimit: 10; stroke-width: 18px;"/>
        <path d="M327.01,524.17c-16.2,37.25-59.17,74.02-59.17,74.02" style="fill: none; stroke: #fec704; stroke-linecap: round; stroke-miterlimit: 10; stroke-width: 18px;"/>
        <path d="M462.85,530.36c11.42,35.38,54.75,67.83,54.75,67.83" style="fill: none; stroke: #fec704; stroke-linecap: round; stroke-miterlimit: 10; stroke-width: 18px;"/>
        <path d="M315.85,474.15s-22.06.74-32.69,1.24c-8.61,7.43-46.45,45.97-46.45,45.97" style="fill: none; stroke: #fec704; stroke-linecap: round; stroke-miterlimit: 10; stroke-width: 18px;"/>
        <path d="M476.14,474.2s20.55.69,31.18,1.18c8.61,7.43,46.45,45.97,46.45,45.97" style="fill: none; stroke: #fec704; stroke-linecap: round; stroke-miterlimit: 10; stroke-width: 18px;"/>
        <path d="M332.49,313.35c-31.21-30.94-21.9-74.67-62.42-77.84" style="fill: none; stroke: #fec704; stroke-linecap: round; stroke-miterlimit: 10; stroke-width: 18px;"/>
        <path d="M456.44,313.35c31.21-30.94,21.9-74.67,62.42-77.84" style="fill: none; stroke: #fec704; stroke-linecap: round; stroke-miterlimit: 10; stroke-width: 18px;"/>
        <path d="M371.97,238.12c-8.67-24.03-23.66-41.76-44.95-53.19" style="fill: none; stroke: #fec704; stroke-linecap: round; stroke-miterlimit: 10; stroke-width: 18px;"/>
        <path d="M326.71,327.77c-7.08-1.52-99.69-42.39-152.27-22.88-21.92,8.45-57.03,59.58,11.61,115.39,56.9,41.7,131.98,16.38,131.98,16.38" style="fill: none; stroke: #fec704; stroke-linecap: round; stroke-miterlimit: 10; stroke-width: 18px;"/>
        <path d="M420.26,235.51c8.67-24.03,23.66-41.76,44.95-53.19" style="fill: none; stroke: #fec704; stroke-linecap: round; stroke-miterlimit: 10; stroke-width: 18px;"/>
        <ellipse cx="369.93" cy="267.98" rx="9.64" ry="4.45" style="fill: none; stroke: #fec704; stroke-linecap: round; stroke-miterlimit: 10; stroke-width: 12px;"/>
        <ellipse cx="417.26" cy="267.98" rx="9.64" ry="4.45" style="fill: none; stroke: #fec704; stroke-linecap: round; stroke-miterlimit: 10; stroke-width: 12px;"/>
        <path d="M461.89,326.19c7.08-1.52,99.69-42.39,152.27-22.88,21.92,8.45,57.03,59.58-11.61,115.39-56.9,41.7-130.65,16.8-130.65,16.8" style="fill: none; stroke: #fec704; stroke-linecap: round; stroke-miterlimit: 10; stroke-width: 18px;"/>
      </g>
      <path d="M394.96,300.44c32.97,0,62.8,9.73,62.8,44.41s-28.12,62.8-62.8,62.8-62.8-28.12-62.8-62.8,29.83-44.41,62.8-44.41Z" style="fill: none; stroke: #fec704; stroke-miterlimit: 10; stroke-width: 18px;"/>
      <text transform="translate(350.49 363.38)" style="fill: #fec704; font-family: SegoeUIBlack, &apos;Segoe UI&apos;; font-size: 40px;"><tspan x="0" y="0">MCT</tspan></text>
      <text transform="translate(88.46 400.54) rotate(-86.15)" style="fill: #fff; font-family: Arial-Black, &apos;Arial Black&apos;; font-size: 73.04px; font-weight: 800;"><tspan x="0" y="0">E</tspan></text>
      <text transform="translate(91.31 349.91) rotate(-75.95)" style="fill: #fff; font-family: Arial-Black, &apos;Arial Black&apos;; font-size: 73.04px; font-weight: 800;"><tspan x="0" y="0">U</tspan></text>
      <text transform="translate(105.53 293.01) rotate(-65.33)" style="fill: #fff; font-family: Arial-Black, &apos;Arial Black&apos;; font-size: 73.04px; font-weight: 800;"><tspan x="0" y="0">R</tspan></text>
      <text transform="translate(127.42 244.2) rotate(-55)" style="fill: #fff; font-family: Arial-Black, &apos;Arial Black&apos;; font-size: 73.04px; font-weight: 800;"><tspan x="0" y="0">O</tspan></text>
      <text transform="translate(161.26 196.18) rotate(-44.86)" style="fill: #fff; font-family: Arial-Black, &apos;Arial Black&apos;; font-size: 73.04px; font-weight: 800;"><tspan x="0" y="0">P</tspan></text>
      <text transform="translate(197.16 160.23) rotate(-35.45)" style="fill: #fff; font-family: Arial-Black, &apos;Arial Black&apos;; font-size: 73.04px; font-weight: 800;"><tspan x="0" y="0">E</tspan></text>
      <text transform="translate(238.31 130.5) rotate(-25.62)" style="fill: #fff; font-family: Arial-Black, &apos;Arial Black&apos;; font-size: 73.04px; font-weight: 800;"><tspan x="0" y="0">A</tspan></text>
      <text transform="translate(287.46 106.51) rotate(-15)" style="fill: #fff; font-family: Arial-Black, &apos;Arial Black&apos;; font-size: 73.04px; font-weight: 800;"><tspan x="0" y="0">N</tspan></text>
      <text transform="translate(344.89 92.28) rotate(-7.32)" style="fill: #fff; font-family: Arial-Black, &apos;Arial Black&apos;; font-size: 73.04px; font-weight: 800;"><tspan x="0" y="0"> </tspan></text>
      <text transform="translate(367.16 87.68) rotate(.94)" style="fill: #fff; font-family: Arial-Black, &apos;Arial Black&apos;; font-size: 73.04px; font-weight: 800;"><tspan x="0" y="0">M</tspan></text>
      <text transform="translate(433.82 89.12) rotate(12.19)" style="fill: #fff; font-family: Arial-Black, &apos;Arial Black&apos;; font-size: 73.04px; font-weight: 800;"><tspan x="0" y="0">C</tspan></text>
      <text transform="translate(487.36 100.69) rotate(22.08)" style="fill: #fff; font-family: Arial-Black, &apos;Arial Black&apos;; font-size: 73.04px; font-weight: 800;"><tspan x="0" y="0">T</tspan></text>
      <text transform="translate(534.53 120.65) rotate(29.02)" style="fill: #fff; font-family: Arial-Black, &apos;Arial Black&apos;; font-size: 73.04px; font-weight: 800;"><tspan x="0" y="0"> </tspan></text>
      <text transform="translate(555.07 130.97) rotate(35.93)" style="fill: #fff; font-family: Arial-Black, &apos;Arial Black&apos;; font-size: 73.04px; font-weight: 800;"><tspan x="0" y="0">S</tspan></text>
      <text transform="translate(596.43 160.29) rotate(46.06)" style="fill: #fff; font-family: Arial-Black, &apos;Arial Black&apos;; font-size: 73.04px; font-weight: 800;"><tspan x="0" y="0">U</tspan></text>
      <text transform="translate(637.53 202) rotate(57.65)" style="fill: #fff; font-family: Arial-Black, &apos;Arial Black&apos;; font-size: 73.04px; font-weight: 800;"><tspan x="0" y="0">M</tspan></text>
      <text transform="translate(673.35 258.04) rotate(70.06)" style="fill: #fff; font-family: Arial-Black, &apos;Arial Black&apos;; font-size: 73.04px; font-weight: 800;"><tspan x="0" y="0">M</tspan></text>
      <text transform="translate(694.89 321.52) rotate(78.85)" style="fill: #fff; font-family: Arial-Black, &apos;Arial Black&apos;; font-size: 73.04px; font-weight: 800;"><tspan x="0" y="0">I</tspan></text>
      <text transform="translate(700.94 347.76) rotate(86.12)" style="fill: #fff; font-family: Arial-Black, &apos;Arial Black&apos;; font-size: 73.04px; font-weight: 800;"><tspan x="0" y="0">T</tspan></text>
      <text transform="translate(209.94 707.34) rotate(25.85)" style="fill: #fff; font-family: Arial-Black, &apos;Arial Black&apos;; font-size: 73.04px; font-weight: 800;"><tspan x="0" y="0">U</tspan></text>
      <text transform="translate(270.39 736) rotate(15.23)" style="fill: #fff; font-family: Arial-Black, &apos;Arial Black&apos;; font-size: 73.04px; font-weight: 800;"><tspan x="0" y="0">K</tspan></text>
      <text transform="translate(334.33 752.29) rotate(6.1)" style="fill: #fff; font-family: Arial-Black, &apos;Arial Black&apos;; font-size: 73.04px; font-weight: 800;"><tspan x="0" y="0">●</tspan></text>
      <text transform="translate(382.7 757.3) rotate(-1.83)" style="fill: #fff; font-family: Arial-Black, &apos;Arial Black&apos;; font-size: 73.04px; font-weight: 800;"><tspan x="0" y="0">2</tspan></text>
      <text transform="translate(436.16 755.26) rotate(-10.23)" style="fill: #fff; font-family: Arial-Black, &apos;Arial Black&apos;; font-size: 73.04px; font-weight: 800;"><tspan x="0" y="0">0</tspan></text>
      <text transform="translate(488.77 745.4) rotate(-18.73)" style="fill: #fff; font-family: Arial-Black, &apos;Arial Black&apos;; font-size: 73.04px; font-weight: 800;"><tspan x="0" y="0">2</tspan></text>
      <text transform="translate(539.36 727.87) rotate(-27.22)" style="fill: #fff; font-family: Arial-Black, &apos;Arial Black&apos;; font-size: 73.04px; font-weight: 800;"><tspan x="0" y="0">5</tspan></text>
    </g>
  </g>
</svg>